<?xml version="1.0" encoding="UTF-8"?>
<svg id="Layer_1" data-name="Layer 1" xmlns="http://www.w3.org/2000/svg" viewBox="0 0 300 300">
  <defs>
    <style>
      .cls-1 {
        fill: #0177d2;
        stroke-width: 0px;
      }
    </style>
  </defs>
  <path class="cls-1" d="m0,136h100.54v-26.66c-2.67,1.83-5.7,3.42-9.08,4.78-3.39,1.36-7.03,2.63-10.94,3.82l-6.15-18.17c6.67-1.93,13.05-4.4,19.13-7.42,6.08-3.01,11.42-6.33,16.02-9.94h13.57v53.58h12.92V0H17.43C7.81,0,0,7.81,0,17.43v118.57Z"/>
  <path class="cls-1" d="m183.2,114.12c-3.39,1.36-7.03,2.63-10.94,3.82l-6.15-18.17c6.67-1.93,13.05-4.4,19.13-7.42,6.08-3.01,11.42-6.33,16.02-9.94h13.57v53.58h85.17V17.43c0-9.63-7.81-17.43-17.43-17.43h-118.57v136h28.28v-26.66c-2.67,1.83-5.7,3.42-9.08,4.78Z"/>
  <path class="cls-1" d="m100.54,210.06v-46.06H0v118.57c0,9.63,7.81,17.43,17.43,17.43h118.57v-136h-12.92v46.06h-22.54Z"/>
  <path class="cls-1" d="m192.28,210.06v-46.06h-28.28v136h118.57c9.63,0,17.43-7.81,17.43-17.43v-118.57h-85.17v46.06h-22.54Z"/>
</svg>